<svg xmlns="http://www.w3.org/2000/svg" version="1.1" xmlns:xlink="http://www.w3.org/1999/xlink" xmlns:svgjs="http://svgjs.dev/svgjs" width="600" height="300" preserveAspectRatio="none" viewBox="0 0 600 300"><g mask="url(&quot;#SvgjsMask1036&quot;)" fill="none"><path d="M-23.85 129.11C30.12 138.72 45.73 265.99 141.5 273.11 237.26 280.23 263.55 323.96 306.84 324.55" stroke="rgba(51,121,194,0.58)" stroke-width="2"></path><path d="M-31.11 245.1C22.75 236.7 51.58 106.75 137.71 107.1 223.84 107.45 243.33 292.35 306.53 313.66" stroke="rgba(51,121,194,0.58)" stroke-width="2"></path><path d="M-111.22 74.09C-46.69 75.13 20.06 140.45 133.91 155.09 247.75 169.73 205.31 323.13 256.47 349.07" stroke="rgba(51,121,194,0.58)" stroke-width="2"></path><path d="M-41.15 117.24C32.54 121.7 80.58 255.49 218.29 258.24 356.01 260.99 411.94 302.36 477.74 302.52" stroke="rgba(51,121,194,0.58)" stroke-width="2"></path><path d="M-97.09 220.63C-37.99 218.5 7.82 123.87 119.09 124.63 230.36 125.39 262.86 311.49 335.27 326.3" stroke="rgba(51,121,194,0.58)" stroke-width="2"></path></g><defs><mask id="SvgjsMask1036"><rect width="600" height="300" fill="#ffffff"></rect></mask></defs></svg>