<svg xmlns="http://www.w3.org/2000/svg" version="1.1" xmlns:xlink="http://www.w3.org/1999/xlink" xmlns:svgjs="http://svgjs.dev/svgjs" width="600" height="400" preserveAspectRatio="none" viewBox="0 0 600 400"><g mask="url(&quot;#SvgjsMask1027&quot;)" fill="none"><path d="M-34.73 203.48C35.08 193.9 64.58 25.85 188.56 31.48 312.54 37.11 314.96 363.92 411.85 420.28" stroke="rgba(51,121,194,0.58)" stroke-width="2"></path><path d="M-42.03 109.24C32.83 113.08 98.15 226.22 225.18 245.24 352.21 264.26 306.01 408.79 358.79 430.68" stroke="rgba(51,121,194,0.58)" stroke-width="2"></path><path d="M-63.87 221.43C-14.86 213.29-0.32 86.54 88.13 93.43 176.57 100.32 169.99 353.77 240.12 404.5" stroke="rgba(51,121,194,0.58)" stroke-width="2"></path><path d="M-89.64 221.1C-1.75 226.81 88.35 386.29 217.8 393.1 347.25 399.91 329.81 456.83 371.52 458.15" stroke="rgba(51,121,194,0.58)" stroke-width="2"></path><path d="M-52.56 331.38C29.46 324.72 119.08 158.38 228.1 159.38 337.12 160.38 303.79 398.73 368.43 445.19" stroke="rgba(51,121,194,0.58)" stroke-width="2"></path></g><defs><mask id="SvgjsMask1027"><rect width="600" height="400" fill="#ffffff"></rect></mask></defs></svg>