<svg xmlns="http://www.w3.org/2000/svg" version="1.1" xmlns:xlink="http://www.w3.org/1999/xlink" xmlns:svgjs="http://svgjs.dev/svgjs" width="1440" height="150" preserveAspectRatio="none" viewBox="0 0 1440 150"><g mask="url(&quot;#SvgjsMask1010&quot;)" fill="none"><path d="M -70.59052383415178,122 C 25.41,110.8 217.41,68.6 409.4094761658482,66 C 601.41,63.4 697.41,112.2 889.4094761658482,109 C 1081.41,105.8 1177.41,47.8 1369.4094761658482,50 C 1561.41,52.2 1835.29,118.6 1849.4094761658482,120 C 1863.53,121.4 1521.88,69.6 1440,57" stroke="rgba(253, 148, 37, 1)" stroke-width="2"></path><path d="M -882.239257235697,89 C -786.24,76.6 -594.24,21 -402.239257235697,27 C -210.24,33 -114.24,111.2 77.76074276430302,119 C 269.76,126.8 365.76,70.6 557.760742764303,66 C 749.76,61.4 861.31,102.4 1037.760742764303,96 C 1214.21,89.6 1359.55,46.4 1440,34" stroke="rgba(0, 141, 173, 1)" stroke-width="2"></path><path d="M -870.990368588884,72 C -774.99,82.4 -582.99,133.8 -390.99036858888405,124 C -198.99,114.2 -102.99,26.2 89.00963141111595,23 C 281.01,19.8 377.01,107.6 569.009631411116,108 C 761.01,108.4 874.81,21.6 1049.009631411116,25 C 1223.21,28.4 1361.8,105 1440,125" stroke="rgba(0, 141, 173, 1)" stroke-width="2"></path><path d="M -564.8113800885989,66 C -468.81,70 -276.81,90.2 -84.81138008859887,86 C 107.19,81.8 203.19,40.2 395.18861991140113,45 C 587.19,49.8 683.19,109.4 875.1886199114011,110 C 1067.19,110.6 1242.23,46.4 1355.188619911401,48 C 1468.15,49.6 1423.04,104 1440,118" stroke="rgba(0, 141, 173, 1)" stroke-width="2"></path></g><defs><mask id="SvgjsMask1010"><rect width="1440" height="150" fill="#ffffff"></rect></mask></defs></svg>